<?xml version="1.0" encoding="utf-8"?>
<!-- Generator: Adobe Illustrator 17.1.0, SVG Export Plug-In . SVG Version: 6.00 Build 0)  -->
<!DOCTYPE svg PUBLIC "-//W3C//DTD SVG 1.1//EN" "http://www.w3.org/Graphics/SVG/1.1/DTD/svg11.dtd">
<svg version="1.1" id="Layer_1" xmlns="http://www.w3.org/2000/svg" xmlns:xlink="http://www.w3.org/1999/xlink" x="0px" y="0px"
	 viewBox="0 0 143 32" enable-background="new 0 0 143 32" xml:space="preserve">
<g>
	<g>
		<g>
			<path fill="#000000" d="M7.6,24l-3.5,0c0.6-0.3,0.7-0.7,0.7-1.3V9.5H1.3c-0.7,0-1.1,0.1-1.3,0.7L0,8h11.8v2.3
				c-0.2-0.6-0.6-0.7-1.3-0.7H7l0,13.1C7,23.3,7.1,23.7,7.6,24z"/>
			<path fill="#000000" d="M15.1,24.3c-3.3,0-5.6-2.4-5.6-6.1c0-3.7,2.3-6.1,5.2-6.1c2.8,0,4.7,2.1,4.7,5.6c0,0.2,0,0.4,0,0.6h-8
				c0.1,3.1,1.6,4.8,3.9,4.8c1.5,0,2.7-0.8,3.7-2.4v2C18,23.8,16.8,24.3,15.1,24.3z M17.6,17c-0.1-2.4-1.2-3.8-2.9-3.8
				c-1.7,0-2.9,1.3-3.2,3.8H17.6z"/>
			<path fill="#000000" d="M24.5,24l-3.1,0c0.5-0.3,0.7-0.7,0.7-1.3V9.3c0-0.6-0.1-1-0.7-1.3l2.5,0v14.7
				C23.8,23.3,23.9,23.7,24.5,24z"/>
			<path fill="#000000" d="M31.6,24.3c-3.3,0-5.6-2.4-5.6-6.1c0-3.7,2.3-6.1,5.2-6.1c2.8,0,4.7,2.1,4.7,5.6c0,0.2,0,0.4,0,0.6h-8
				c0.1,3.1,1.6,4.8,3.9,4.8c1.5,0,2.7-0.8,3.7-2.4v2C34.5,23.8,33.2,24.3,31.6,24.3z M34.1,17c-0.1-2.4-1.2-3.8-2.9-3.8
				c-1.7,0-2.9,1.3-3.2,3.8L34.1,17z"/>
			<path fill="#000000" d="M45.9,24.3c-4.8,0-7.8-3.1-7.8-8.3c0-2.6,0.9-4.7,2.4-6.3c1.4-1.4,3.2-2.1,5.2-2.1c2.4,0,3.7,1.1,4.1,1.1
				c0.3,0,0.4-0.1,0.6-0.4v3.9C49.7,10.5,48,9.3,46,9.3c-1.5,0-2.9,0.7-3.9,1.8c-1.1,1.3-1.7,3-1.7,4.9c0,4,2.4,6.7,5.7,6.7
				c1,0,1.8-0.2,2.7-0.7V18c0-0.5-0.2-0.8-0.7-0.9l3.6,0C51.2,17.1,51,17.4,51,18v4.8C49.3,23.8,47.7,24.3,45.9,24.3z"/>
			<path fill="#000000" d="M58.8,24.3c-3.3,0-5.6-2.4-5.6-6.1c0-3.7,2.3-6.1,5.2-6.1c2.8,0,4.7,2.1,4.7,5.6c0,0.2,0,0.4,0,0.6h-8
				c0.1,3.1,1.6,4.8,3.9,4.8c1.5,0,2.7-0.8,3.7-2.4l0,2C61.8,23.8,60.5,24.3,58.8,24.3z M61.3,17c-0.1-2.4-1.2-3.8-2.9-3.8
				c-1.7,0-2.9,1.3-3.2,3.8H61.3z"/>
			<path fill="#000000" d="M64.8,18.2c0-3.7,2.3-6.1,5.4-6.1c3.1,0,5.4,2.4,5.4,6.1c0,3.7-2.3,6.1-5.4,6.1
				C67.1,24.3,64.8,21.8,64.8,18.2z M73.7,18.2c0-3-1.5-4.8-3.5-4.8c-2,0-3.5,1.8-3.5,4.8c0,3,1.5,4.8,3.5,4.8
				C72.2,22.9,73.7,21.1,73.7,18.2z"/>
			<path fill="#000000" d="M76.6,21.2c0-1.3,0.7-2.1,2-2.4c-0.7-0.7-1.1-1.6-1.1-2.8c0-2.2,1.9-4.1,4.4-4.1c0.5,0,1.1,0.1,1.8,0.3
				h3.9v1.3h-2.2c0.7,0.7,1,1.7,1,2.6c0,1.1-0.4,2.1-1.2,2.9c-0.9,0.8-2,1.3-3.1,1.3c-1,0-2-0.3-2.8-0.9c-0.7,0.3-1,0.7-1,1.4
				c0,1.2,1.1,1.7,3.3,1.7l1.6,0c2.9,0,4.3,0.8,4.3,2.5c0,2-1.9,3.4-5,3.4c-3.2,0-5.1-1.2-5.1-3.1c0-0.8,0.3-1.4,1-1.9
				C77.3,23.1,76.6,22.3,76.6,21.2z M79.3,25.2c0,1.3,1.1,2.2,3.2,2.2c2,0,3.3-0.9,3.3-2.1c0-0.7-0.4-1.1-1.1-1.2
				C84.1,24,83.6,24,83,24c-0.2,0-0.3,0-0.5,0c-0.8,0-1.6,0-2.5-0.1C79.5,24.2,79.3,24.6,79.3,25.2z M84.7,16.2
				c0-1.7-1.1-2.8-2.6-2.8c-1.5,0-2.6,1.1-2.6,2.8c0,1.6,1.1,2.8,2.6,2.8C83.6,19,84.7,17.8,84.7,16.2z"/>
			<path fill="#000000" d="M92.4,24l-3.1,0c0.5-0.3,0.7-0.7,0.7-1.3v-9c0-0.6-0.1-1-0.7-1.3h2.5l0,3c0.9-2.3,2-3.3,3.6-3.3
				c0.5,0,0.9,0.1,1.4,0.3v2.2c-0.3-0.7-0.8-1.1-1.5-1.1c-1.2,0-2.2,1.2-3.5,3.5v5.6C91.7,23.3,91.8,23.7,92.4,24z"/>
			<path fill="#000000" d="M106,24c-0.4-0.6-0.5-1.4-0.5-2.4c-0.8,1.8-2.2,2.7-3.9,2.7c-2.4,0-4-1.5-4-3.4c0-0.9,0.4-1.8,1.2-2.4
				c0.9-0.7,1.9-0.9,3.1-1.2c0.9-0.2,2.1-0.4,3.5-1.1c0-0.2,0-0.3,0-0.5c0-1.6-0.8-2.4-2.6-2.4c-1.9,0-3.4,0.8-4.2,2.2v-2.4
				c1.2-0.8,2.6-1.2,4.4-1.2c2.2,0,3.6,0.8,4,2.2c0.2,0.7,0.3,1.8,0.3,3.1c0,0.4,0,0.8,0,1.2v2c0,1.6,0.1,2.7,0.7,3.4H106z
				 M101.2,18.8c-1.1,0.5-1.7,0.9-1.7,2.1c0,1.3,0.9,2.1,2.4,2.1c2.1,0,3.5-1.8,3.5-5c0-0.2,0-0.4,0-0.6
				C102.8,18.4,101.4,18.7,101.2,18.8z"/>
			<path fill="#000000" d="M115.2,12c2.9,0,4.9,2.4,4.9,6.1c0,3.8-2,6.1-4.9,6.1c-1.7,0-3.1-0.8-3.7-2.3v5c0,0.6,0.1,1,0.7,1.3H109
				c0.6-0.3,0.7-0.7,0.7-1.3V13.7c0-0.6-0.1-1-0.7-1.3l2.5,0l-0.2,2.5C112,13,113.4,12,115.2,12z M114.7,23c2,0,3.4-1.8,3.4-4.8
				c0-3-1.4-4.8-3.3-4.8c-1.9,0-3.3,1.8-3.3,4.8C111.5,21.2,112.8,23,114.7,23z"/>
			<path fill="#000000" d="M123.8,22.7c0,0.6,0.1,1,0.7,1.3l-3.1,0c0.5-0.3,0.7-0.7,0.7-1.3V9.3c0-0.6-0.1-1-0.7-1.3l2.5,0v7.1
				c0.9-2,2.2-3.1,4-3.1c2,0,3.1,1.2,3.1,3.7l0,7c0,0.6,0.1,1,0.6,1.3l-3.1,0c0.5-0.3,0.6-0.7,0.6-1.3v-7c0-1.5-0.5-2.3-1.7-2.3
				c-1.4,0-2.8,1.2-3.5,3.3V22.7z"/>
			<path fill="#000000" d="M132.9,25.8c0.3,0.8,0.9,1.3,1.7,1.3c0.8,0,1.5-0.8,2.1-2.3l0.2-0.5l-4.1-10.7c-0.2-0.6-0.4-1.1-1.1-1.3
				l3.5,0c-0.4,0.2-0.5,0.4-0.5,0.7c0,0.2,0.1,0.5,0.2,0.8l2.8,8l2.6-7.9c0.1-0.3,0.2-0.6,0.2-1c0-0.3-0.2-0.5-0.6-0.7h2.9
				c-0.5,0.2-0.8,0.6-1,1.2l-4,11.5c-0.8,2.4-1.7,3.6-3.3,3.6c-0.7,0-1.4-0.2-1.9-0.6V25.8z"/>
		</g>
	</g>
</g>
</svg>
